<svg xmlns="http://www.w3.org/2000/svg" viewBox="0 0 96 96" role="img" aria-label="IPA Self-Host">
  <defs>
    <linearGradient id="bg" x1="18" y1="10" x2="80" y2="88" gradientUnits="userSpaceOnUse">
      <stop stop-color="#6aa3ff"/>
      <stop offset="1" stop-color="#2858f6"/>
    </linearGradient>
    <linearGradient id="tile" x1="28" y1="24" x2="68" y2="72" gradientUnits="userSpaceOnUse">
      <stop stop-color="#ffffff"/>
      <stop offset="1" stop-color="#dce7ff"/>
    </linearGradient>
  </defs>
  <rect width="96" height="96" rx="24" fill="url(#bg)"/>
  <path d="M27 28c0-5 4-9 9-9h20l13 13v36c0 5-4 9-9 9H36c-5 0-9-4-9-9V28Z" fill="url(#tile)" opacity=".96"/>
  <path d="M56 20v9c0 3 2 5 5 5h8" fill="none" stroke="#8baaff" stroke-width="4" stroke-linecap="round" stroke-linejoin="round"/>
  <rect x="35" y="39" width="11" height="11" rx="3" fill="#2f63f6"/>
  <rect x="50" y="39" width="11" height="11" rx="3" fill="#2f63f6" opacity=".74"/>
  <rect x="35" y="54" width="11" height="11" rx="3" fill="#2f63f6" opacity=".74"/>
  <path d="M57 53v12m0 0-5-5m5 5 5-5" fill="none" stroke="#2f63f6" stroke-width="5" stroke-linecap="round" stroke-linejoin="round"/>
</svg>
