<svg xmlns="http://www.w3.org/2000/svg" viewBox="0 0 96 96" role="img" aria-label="PiliPlus">
  <defs>
    <linearGradient id="p" x1="18" y1="10" x2="82" y2="86" gradientUnits="userSpaceOnUse">
      <stop stop-color="#58a6ff"/>
      <stop offset="1" stop-color="#4361ee"/>
    </linearGradient>
  </defs>
  <rect width="96" height="96" rx="24" fill="url(#p)"/>
  <path d="M25 37c0-6 5-11 11-11h24c6 0 11 5 11 11v19c0 6-5 11-11 11H36c-6 0-11-5-11-11V37Z" fill="#fff"/>
  <path d="m39 26-7-9m25 9 7-9" fill="none" stroke="#fff" stroke-width="6" stroke-linecap="round"/>
  <circle cx="39" cy="47" r="4" fill="#4361ee"/>
  <circle cx="57" cy="47" r="4" fill="#4361ee"/>
  <path d="M42 58h12" stroke="#4361ee" stroke-width="5" stroke-linecap="round"/>
  <path d="M71 29h5m-2-3v6" stroke="#fff" stroke-width="5" stroke-linecap="round"/>
</svg>
